<?xml version="1.0" standalone="no"?>
<!DOCTYPE svg PUBLIC "-//W3C//DTD SVG 20010904//EN" "http://www.w3.org/TR/2001/REC-SVG-20010904/DTD/svg10.dtd">
<svg version="1.0" xmlns="http://www.w3.org/2000/svg" width="30" height="32" viewBox="200 200 600.000000 600.000000"
        preserveAspectRatio="xMidYMid meet">

        <g transform="translate(0.000000,1024.000000) scale(0.100000,-0.100000)" fill="#1142ac" stroke="none">
                <path d="M2630 8301 c-345 -73 -609 -318 -717 -666 l-28 -90 -3 -2320 c-3
-2550 -6 -2400 58 -2577 119 -329 406 -564 740 -608 60 -8 781 -10 2495 -8
l2410 3 80 23 c91 25 223 86 292 133 76 53 187 165 242 244 67 97 105 179 139
301 l27 99 0 2340 c0 2206 -1 2344 -18 2415 -41 174 -125 326 -251 453 -114
115 -242 191 -412 244 l-89 28 -2440 2 c-2317 2 -2444 1 -2525 -16z m4373
-606 c141 -37 285 -150 340 -268 58 -121 57 -110 57 -884 l0 -713 -130 0 -131
0 3 703 3 702 -29 58 c-18 38 -43 69 -73 92 -91 69 28 65 -1790 65 l-1643 0 0
-2220 0 -2220 1668 2 1667 3 47 23 c55 27 103 79 129 138 18 39 19 87 21 798
l3 756 128 0 128 0 -3 -787 c-3 -889 2 -822 -85 -955 -72 -109 -165 -174 -300
-209 -74 -18 -129 -19 -1928 -19 -1776 0 -1854 1 -1923 19 -88 23 -150 59
-226 130 -64 62 -95 108 -128 197 l-23 59 -3 2028 c-3 2255 -7 2092 66 2231
51 97 132 175 235 226 45 22 107 44 137 49 30 5 881 9 1890 10 1596 1 1843 -1
1893 -14z m-1531 -839 c154 -30 283 -101 396 -220 169 -178 224 -354 221 -699
l-1 -162 54 -5 c95 -10 167 -65 196 -149 16 -46 17 -1458 1 -1515 -6 -21 -29
-58 -51 -82 -72 -78 -27 -75 -1024 -72 l-879 3 -41 22 c-23 12 -54 37 -69 55
-59 69 -56 38 -56 831 l0 730 28 56 c39 78 95 114 184 119 l65 4 1 217 c0 255
11 319 77 455 79 161 188 269 351 347 120 58 208 78 352 78 67 1 155 -5 195
-13z m2033 -1140 c64 -27 65 -34 65 -438 0 -342 -1 -365 -20 -395 -30 -49 -64
-55 -326 -51 l-231 3 -48 30 c-87 54 -90 64 -93 400 -3 312 0 342 45 396 53
63 81 69 341 69 179 0 241 -3 267 -14z" />
                <path d="M3250 7441 c-91 -29 -164 -95 -196 -177 -18 -47 -19 -111 -19 -2034
0 -1582 3 -1994 13 -2027 31 -103 132 -179 251 -190 l61 -6 -2 2219 -3 2219
-40 2 c-22 1 -51 -2 -65 -6z" />
                <path d="M5193 6540 c-187 -34 -324 -154 -369 -325 -9 -33 -14 -115 -14 -246
l0 -197 473 2 472 1 -1 205 c0 189 -2 210 -23 263 -54 137 -163 246 -283 282
-66 19 -189 26 -255 15z" />
                <path d="M5133 5350 c-118 -59 -178 -164 -171 -300 5 -109 59 -204 146 -260
l23 -15 -55 -225 c-30 -124 -56 -232 -58 -240 -3 -13 33 -15 265 -18 253 -2
268 -1 263 15 -3 10 -28 114 -56 231 -28 117 -51 217 -53 221 -1 5 22 30 52
57 77 69 111 145 111 245 0 95 -20 155 -72 214 -63 72 -124 98 -238 103 -90 3
-98 2 -157 -28z" />
        </g>
</svg>