<?xml version="1.0" standalone="no"?>
<!DOCTYPE svg PUBLIC "-//W3C//DTD SVG 20010904//EN" "http://www.w3.org/TR/2001/REC-SVG-20010904/DTD/svg10.dtd">
<svg version="1.0" xmlns="http://www.w3.org/2000/svg" width="30" height="32" viewBox="200 200 600.000000 600.000000"
        preserveAspectRatio="xMidYMid meet">

        <g transform="translate(0.000000,1024.000000) scale(0.100000,-0.100000)" fill="#094b8a" stroke="none">
                <path d="M3160 7699 c-290 -76 -532 -310 -622 -601 l-23 -73 -3 -1845 c-2
-1232 1 -1871 8 -1924 43 -334 310 -628 652 -719 l83 -22 1855 0 1855 0 85 23
c167 44 323 135 436 253 78 82 116 139 169 252 86 182 80 23 80 2102 0 2064 6
1889 -74 2060 -53 113 -106 187 -192 271 -101 97 -206 164 -325 205 l-99 34
-1905 2 c-1865 2 -1907 2 -1980 -18z m3532 -478 c153 -17 303 -122 364 -254
l29 -62 3 -662 3 -663 -74 0 c-41 0 -89 3 -106 6 l-31 7 0 602 0 602 -30 61
c-36 72 -83 116 -142 134 -34 10 -327 13 -1443 13 l-1400 0 2 -1125 c1 -619 4
-1464 8 -1878 l7 -753 1402 3 1401 3 56 26 c32 15 68 42 82 61 58 75 57 68 57
719 l0 599 68 0 c37 0 84 -3 105 -6 l37 -7 0 -621 c0 -673 -1 -679 -55 -772
-58 -99 -141 -166 -248 -203 -55 -19 -103 -20 -1654 -23 -1531 -3 -1601 -2
-1658 15 -33 11 -79 30 -103 44 -99 58 -186 179 -211 293 -11 51 -13 2705 -3
3210 l7 315 27 58 c57 122 203 237 324 256 68 11 3081 13 3176 2z m-1242 -752
c187 -55 365 -214 449 -401 43 -95 51 -151 51 -353 l0 -185 28 0 c39 -1 102
-33 139 -71 66 -70 64 -47 62 -712 0 -361 -5 -619 -11 -644 -12 -52 -70 -121
-117 -141 -31 -12 -147 -15 -776 -17 -826 -3 -789 -6 -849 66 -56 66 -55 47
-58 730 -3 603 -2 636 16 669 37 69 94 116 161 130 l30 6 2 183 c3 210 18 285
81 406 43 82 149 198 230 251 157 105 379 138 562 83z m1616 -1004 c17 -3 44
-19 60 -36 l29 -30 -1 -290 c-1 -284 -1 -291 -23 -312 -21 -21 -31 -22 -246
-25 l-225 -3 -24 26 c-13 14 -27 38 -30 53 -4 15 -10 142 -13 282 l-5 256 28
33 c48 57 69 62 254 56 91 -3 179 -8 196 -10z" />
                <path d="M3541 6998 c-58 -16 -115 -63 -146 -120 l-30 -53 0 -1685 c0 -1881
-7 -1714 71 -1800 47 -52 102 -80 168 -87 l51 -5 1 1881 1 1881 -41 -1 c-22 0
-56 -5 -75 -11z" />
                <path d="M5196 6240 c-122 -21 -254 -120 -309 -233 -38 -79 -47 -136 -47 -308
l0 -149 173 0 c94 -1 286 -2 424 -3 l253 -2 0 146 c0 170 -9 231 -50 316 -74
160 -270 262 -444 233z" />
                <path d="M5215 5211 c-58 -15 -106 -44 -145 -89 -44 -50 -60 -93 -60 -166 0
-85 18 -125 87 -193 l63 -61 -58 -184 c-32 -101 -62 -195 -66 -210 l-6 -28
235 0 c170 0 235 3 235 11 0 15 -61 218 -99 331 l-30 87 42 31 c137 100 148
289 25 407 -55 53 -154 82 -223 64z" />
        </g>
</svg>